<?xml version="1.0" encoding="utf-8"?>
<!-- Generator: Adobe Illustrator 24.1.0, SVG Export Plug-In . SVG Version: 6.00 Build 0)  -->
<svg version="1.1" id="Layer_1" xmlns="http://www.w3.org/2000/svg" xmlns:xlink="http://www.w3.org/1999/xlink" x="0px" y="0px"
	 viewBox="0 0 421.8 421.8" style="enable-background:new 0 0 421.8 421.8;" xml:space="preserve">
<style type="text/css">
	.st0{fill:#2F2F7F;}
</style>
<path class="st0" d="M359.8,0H62c-6.8,0-12.4,5.6-12.4,12.4v336.7c0,6.8,5.2,14.4,11.5,16.9l138.2,54c6.3,2.5,16.7,2.5,23.1,0
	l138.2-54c6.3-2.5,11.5-10.1,11.5-16.9V12.4C372.2,5.6,366.6,0,359.8,0z M285.6,151.4l-74.7,33.2l-59.5-26.4v16l59.5,26.4l74.7-33.1
	v49.3l-74.7,33.2l-59.5-26.4v16l59.5,26.4l74.7-33.1v49.3l-74.7,33.2L136.2,282v-16.7l74.7,33.3l59.5-26.4v-16l-59.5,26.4
	l-74.7-33.2v-49.3l74.7,33.1l59.5-26.4v-16l-59.5,26.4l-74.7-33.2v-49.3l74.7,33.2l59.5-26.4v-16l-59.5,26.4l-74.7-33.2V102
	l74.7,33.2l74.7-33.1V151.4z"/>
</svg>
